<svg xmlns="http://www.w3.org/2000/svg" viewBox="0 0 400 580" width="100%" height="100%">
  <defs>
    <linearGradient id="bg-LIV-003" x1="0%" y1="0%" x2="100%" y2="100%">
      <stop offset="0%" stop-color="#0f766e"/>
      <stop offset="100%" stop-color="#134e4a"/>
    </linearGradient>
    <linearGradient id="spine" x1="0%" y1="0%" x2="100%" y2="0%">
      <stop offset="0%" stop-color="#000000" stop-opacity="0.55"/>
      <stop offset="3%" stop-color="#ffffff" stop-opacity="0.25"/>
      <stop offset="7%" stop-color="#000000" stop-opacity="0.35"/>
      <stop offset="100%" stop-color="#000000" stop-opacity="0"/>
    </linearGradient>
  </defs>
  
  <rect width="400" height="580" fill="url(#bg-LIV-003)" rx="8"/>
  <rect x="22" y="22" width="356" height="536" fill="none" stroke="#2dd4bf" stroke-width="2" stroke-opacity="0.85" rx="4"/>
  <rect x="28" y="28" width="344" height="524" fill="none" stroke="#2dd4bf" stroke-width="0.8" stroke-opacity="0.4" rx="2"/>
  
  <circle cx="34" cy="34" r="4" fill="#2dd4bf"/>
  <circle cx="366" cy="34" r="4" fill="#2dd4bf"/>
  <circle cx="34" cy="546" r="4" fill="#2dd4bf"/>
  <circle cx="366" cy="546" r="4" fill="#2dd4bf"/>
  
  <rect x="100" y="46" width="200" height="26" fill="#2dd4bf" fill-opacity="0.16" rx="13"/>
  <text x="200" y="63" text-anchor="middle" fill="#2dd4bf" font-family="system-ui, -apple-system, sans-serif" font-size="10" font-weight="700" letter-spacing="1.5">ENGENHARIA DE SOFTWARE</text>
  
  <g transform="translate(200, 150)" stroke="#2dd4bf" stroke-width="1.5" fill="none" opacity="0.8">
    <circle cx="0" cy="0" r="32"/>
    <circle cx="0" cy="0" r="26" stroke-dasharray="2,3"/>
    <path d="M -15,0 L 15,0 M 0,-15 L 0,15"/>
    <polygon points="0,-18 5,-8 16,-8 8,0 11,10 0,4 -11,10 -8,0 -16,-8 -5,-8" fill="#2dd4bf" opacity="0.3"/>
  </g>
  
  <text x="200" y="240" text-anchor="middle" fill="#ffffff" font-family="Georgia, Cambria, serif" font-size="24" font-weight="700" letter-spacing="-0.5">
    Clean Code
  </text>
  <text x="200" y="270" text-anchor="middle" fill="#2dd4bf" font-family="Georgia, Cambria, serif" font-size="13" font-style="italic" opacity="0.95">
    Agile Software Craftsmanship
  </text>
  
  <line x1="120" y1="305" x2="280" y2="305" stroke="#2dd4bf" stroke-width="1" opacity="0.6"/>
  
  <text x="200" y="350" text-anchor="middle" fill="#f8fafc" font-family="system-ui, -apple-system, sans-serif" font-size="16" font-weight="600" letter-spacing="0.5">
    Robert C. Martin
  </text>
  
  <text x="200" y="510" text-anchor="middle" fill="#2dd4bf" font-family="system-ui, -apple-system, sans-serif" font-size="10.5" font-weight="700" letter-spacing="2" opacity="0.85">
    LIVRARIA ALEXANDRIA
  </text>
  <text x="200" y="526" text-anchor="middle" fill="#94a3b8" font-family="system-ui, -apple-system, sans-serif" font-size="8.5" letter-spacing="1" opacity="0.7">
    COLEÇÃO CLÁSSICA • 2026
  </text>
  
  <rect x="0" y="0" width="28" height="580" fill="url(#spine)" rx="8"/>
</svg>